# xmcd CD database file
#
# Track frame offsets:
#	150
#	11093
#	24288
#	37258
#	58194
#	65364
#	78825
#	91561
#	103600
#	115197
#	124846
#	151140
#	178909
#	190284
#	215095
#	228671
#	243100
#	261936
#	270772
#	287225
#	297122
#	307415
#	318174
#	327764
#	335770
#
# Disc length: 4586 seconds
#
# Revision: 0
# Processed by: cddbd v1.5.2PL0 Copyright (c) Steve Scherf et al.
# Submitted via: CDex 1.82
#
DISCID=6911e819
DTITLE=Louis Prima - The very best of Louis Prima - CD1
DYEAR=2016
DGENRE=Jazz
TTITLE0=Oh, Marie
TTITLE1=Buona sera
TTITLE2=That old black magic
TTITLE3=Just a gicolo - I ain't got nobody
TTITLE4=The glow worm
TTITLE5=Fever
TTITLE6=Bei Mir Bist du Schon
TTITLE7=I'm confessing
TTITLE8=(Nobody's too good) for my baby
TTITLE9=5 months, 2 weeks, 2 days
TTITLE10=Ain't misbehavin'/Way down yonder in New Orleans
TTITLE11=Fee Fie Foo
TTITLE12=Lover come back to me
TTITLE13=Robin Hood/Oh babe
TTITLE14=If you were the only girl in the world
TTITLE15=That's my home
TTITLE16=When the saints go marching in
TTITLE17=I don't know why
TTITLE18=I've gotta right to sing the blues
TTITLE19=Bourbon street blues
TTITLE20=Pennies from heaven
TTITLE21=I've got the world on a string
TTITLE22=Route 66
TTITLE23=The pump song
TTITLE24=The honeydripper 
EXTD=YEAR: 2016
EXTT0=
EXTT1=
EXTT2=
EXTT3=
EXTT4=
EXTT5=
EXTT6=
EXTT7=
EXTT8=
EXTT9=
EXTT10=
EXTT11=
EXTT12=
EXTT13=
EXTT14=
EXTT15=
EXTT16=
EXTT17=
EXTT18=
EXTT19=
EXTT20=
EXTT21=
EXTT22=
EXTT23=
EXTT24=
PLAYORDER=
